<svg width="30" height="30" viewBox="0 0 30 30" fill="none" xmlns="http://www.w3.org/2000/svg">
<path d="M8.275 13.4875C10.075 17.025 12.975 19.925 16.5125 21.725L19.2625 18.975C19.6125 18.625 20.1 18.525 20.5375 18.6625C21.9375 19.125 23.4375 19.375 25 19.375C25.3315 19.375 25.6495 19.5067 25.8839 19.7411C26.1183 19.9755 26.25 20.2935 26.25 20.625V25C26.25 25.3315 26.1183 25.6495 25.8839 25.8839C25.6495 26.1183 25.3315 26.25 25 26.25C19.3641 26.25 13.9591 24.0112 9.97398 20.026C5.98883 16.0409 3.75 10.6359 3.75 5C3.75 4.66848 3.8817 4.35054 4.11612 4.11612C4.35054 3.8817 4.66848 3.75 5 3.75H9.375C9.70652 3.75 10.0245 3.8817 10.2589 4.11612C10.4933 4.35054 10.625 4.66848 10.625 5C10.625 6.5625 10.875 8.0625 11.3375 9.4625C11.475 9.9 11.375 10.3875 11.025 10.7375L8.275 13.4875Z" fill="#3B3C3B"/>
</svg>
